<svg width="880" height="220" viewBox="0 0 880 220" fill="none" xmlns="http://www.w3.org/2000/svg">
  <defs>
    <linearGradient id="g1" x1="0" y1="0" x2="1" y2="1">
      <stop offset="0%" stop-color="#60A5FA"/>
      <stop offset="100%" stop-color="#A78BFA"/>
    </linearGradient>
    <linearGradient id="g2" x1="0" y1="0" x2="1" y2="1">
      <stop offset="0%" stop-color="#22D3EE"/>
      <stop offset="100%" stop-color="#3B82F6"/>
    </linearGradient>
    <filter id="shadow" x="0" y="0" width="880" height="220" filterUnits="userSpaceOnUse" color-interpolation-filters="sRGB">
      <feDropShadow dx="0" dy="10" stdDeviation="10" flood-color="#0F172A" flood-opacity="0.35"/>
    </filter>
  </defs>

  <rect x="20" y="30" width="160" height="160" rx="32" fill="#0B1220"/>
  <g filter="url(#shadow)">
    <path d="M74 150V66H124C147 66 162 79 162 99C162 121 146 134 123 134H98V150H74ZM98 114H120C130 114 137 108 137 99C137 90 130 85 120 85H98V114Z" fill="url(#g1)"/>
    <rect x="58" y="54" width="14" height="132" rx="7" fill="url(#g2)"/>
  </g>

  <text x="220" y="122" fill="#E2E8F0" font-family="Inter,Segoe UI,Arial,sans-serif" font-size="76" font-weight="700" letter-spacing="2">PipeDL</text>
  <text x="224" y="156" fill="#94A3B8" font-family="Inter,Segoe UI,Arial,sans-serif" font-size="22" font-weight="500" letter-spacing="3">YTDLP WORKFLOW TOOLKIT</text>
</svg>
